<svg width="29" height="29" viewBox="0 0 29 29" fill="none" xmlns="http://www.w3.org/2000/svg">
<path d="M15.9084 9.64932C20.0811 3.91186 26.0793 1.13005 28.6873 0.260742C8.24103 3.80754 1.21699 20.5157 0.260742 28.4265C8.08456 19.0379 20.0811 12.7788 25.0362 11.9965C21.9066 10.1709 19.2987 9.91011 15.9084 9.64932Z" fill="#00F3B9"/>
<path d="M28.6873 0C16.7558 1.12302 7.21786 5.91504 3.94036 8.17067H7.95438C1.54669 18.8249 0.552387 25.4478 0 28.6873C8.61724 15.7294 20.4383 12.6339 22.3165 11.6621C19.8203 10.9533 14.3437 10.4318 10.4318 13.0397C12.7789 8.6062 25.4835 1.18781 28.6873 0Z" fill="#0036C3"/>
</svg>
