<svg width="114" height="23" viewBox="0 0 114 23" fill="none" xmlns="http://www.w3.org/2000/svg">
<path d="M22.7744 21.9504H0.779724V0.530518H22.7744V3.59263H3.82013V18.8883H22.7744V21.9504ZM20.1938 12.779H5.33291V9.71686H20.1938V12.779Z" fill="black"/>
<path d="M83.4701 3.59263H64.4861V21.9504H61.4457V0.530518H83.4701V3.59263ZM80.8598 12.779H65.9989V9.71686H80.8598V12.779Z" fill="black"/>
<path d="M92.3884 0.530273H88.7546L98.6996 12.9614L100.43 10.8099L92.3884 0.530273Z" fill="black" fill-opacity="0.87"/>
<path d="M99.6464 22.0455V14.3956L110.218 0.530029H113.999L103.107 14.3956V22.0455H99.6464Z" fill="black" fill-opacity="0.87"/>
<path fill-rule="evenodd" clip-rule="evenodd" d="M43.1855 21.9501L54.3683 0.530273H50.8978L41.584 18.3925L40.1212 21.9501H43.1855ZM39.0173 20.6118L28.5471 0.530273H32.0028L40.5412 16.9055L39.0173 20.6118Z" fill="black"/>
</svg>
